<?xml version="1.0" encoding="UTF-8"?>
<svg version="1.1" viewBox="0 0 48 48" xmlns="http://www.w3.org/2000/svg" xmlns:xlink="http://www.w3.org/1999/xlink">
    <!--Generated by IJSVG (https://github.com/curthard89/IJSVG)-->
    <g fill="#000000">
        <path d="M20,10c-5.52,0 -10,4.48 -10,10c0,5.52 4.48,10 10,10c5.52,0 10,-4.48 10,-10c0,-5.52 -4.48,-10 -10,-10Zm0,-10c-11.05,0 -20,8.95 -20,20c0,11.05 8.95,20 20,20c11.05,0 20,-8.95 20,-20c0,-11.05 -8.95,-20 -20,-20Zm0,36c-8.84,0 -16,-7.16 -16,-16c0,-8.84 7.16,-16 16,-16c8.84,0 16,7.16 16,16c0,8.84 -7.16,16 -16,16Z" transform="translate(4, 4)"></path>
        <path fill="none" d="M0,0h48v48h-48Z"></path>
    </g>
</svg>